<svg xmlns="http://www.w3.org/2000/svg" width="64" height="64" viewBox="0 0 64 64" fill="none">
  <defs>
    <linearGradient id="paper" x1="12" y1="5" x2="51" y2="59" gradientUnits="userSpaceOnUse">
      <stop stop-color="#fff"/>
      <stop offset="1" stop-color="#fafafa"/>
    </linearGradient>
    <linearGradient id="fold" x1="39" y1="5" x2="51" y2="17" gradientUnits="userSpaceOnUse">
      <stop stop-color="#f7f7f7"/>
      <stop offset="1" stop-color="#dedede"/>
    </linearGradient>
    <filter id="shadow" x="8" y="3" width="49" height="60" filterUnits="userSpaceOnUse">
      <feGaussianBlur stdDeviation="1.2"/>
    </filter>
  </defs>
  <path d="M14 5h25l12 12v41H14Z" fill="#000" opacity=".17" transform="translate(1 2)" filter="url(#shadow)"/>
  <path d="M14 4.5h25.5l12 12v41c0 .9-.7 1.5-1.5 1.5H14c-.8 0-1.5-.6-1.5-1.5V6c0-.9.7-1.5 1.5-1.5Z" fill="url(#paper)" stroke="#bcbcbc"/>
  <path d="M39.5 4.5v10.7c0 .9.7 1.5 1.5 1.5h10.5Z" fill="url(#fold)" stroke="#c3c3c3" stroke-linejoin="round"/>
  <path d="M14.5 7v49" stroke="#fff" stroke-opacity=".85"/>
</svg>
