<svg xmlns="http://www.w3.org/2000/svg" viewBox="0 0 640 360">
<defs><linearGradient id="sky" x2="0" y2="1"><stop stop-color="#aad7df"/><stop offset="1" stop-color="#fff2d3"/></linearGradient><linearGradient id="water" x2="0" y2="1"><stop stop-color="#7fb9c5"/><stop offset="1" stop-color="#3f849b"/></linearGradient></defs>
<rect width="640" height="360" fill="url(#sky)"/><circle cx="526" cy="70" r="45" fill="#fff9df"/><path d="M0 161h640v199H0z" fill="url(#water)"/><path d="M0 203q62-14 119 0t121 0 124 0 140 0 136 0M0 270q62-14 119 0t121 0 124 0 140 0 136 0" fill="none" stroke="#d4ece8" stroke-width="5" opacity=".58"/><path d="m157 190 175 112 171-112-165 25z" fill="#fbf2da"/><path d="m157 190 175 112 6-87z" fill="#dbe2d1"/><path d="m338 215 165-25-171 112z" fill="#fffefa"/><path d="M338 215V68L196 180z" fill="#fffaf0"/><path d="M338 68v147l108-35z" fill="#e7eee8"/><path d="M338 72v145" stroke="#7697a2" stroke-width="3"/><path d="M38 105q27-17 54 0 21-20 47-4M458 120q22-15 43 0 29-22 58 0" fill="none" stroke="#fff" stroke-width="10" stroke-linecap="round" opacity=".6"/></svg>
